<svg width="558" height="151" viewBox="0 0 558 151" fill="none" xmlns="http://www.w3.org/2000/svg">
<path d="M80.24 3.84L65.6 60H49.04L40.08 23.04L30.8 60H14.24L2.98023e-08 3.84H14.64L22.72 44.72L32.72 3.84H47.76L57.36 44.72L65.52 3.84H80.24ZM129.181 36.96C129.181 38.24 129.101 39.5733 128.941 40.96H97.9806C98.194 43.7333 99.074 45.8667 100.621 47.36C102.221 48.8 104.167 49.52 106.461 49.52C109.874 49.52 112.247 48.08 113.581 45.2H128.141C127.394 48.1333 126.034 50.7733 124.061 53.12C122.141 55.4667 119.714 57.3067 116.781 58.64C113.847 59.9733 110.567 60.64 106.941 60.64C102.567 60.64 98.674 59.7067 95.2606 57.84C91.8473 55.9733 89.1806 53.3067 87.2606 49.84C85.3406 46.3733 84.3806 42.32 84.3806 37.68C84.3806 33.04 85.314 28.9867 87.1806 25.52C89.1006 22.0533 91.7673 19.3867 95.1806 17.52C98.594 15.6533 102.514 14.72 106.941 14.72C111.261 14.72 115.101 15.6267 118.461 17.44C121.821 19.2533 124.434 21.84 126.301 25.2C128.221 28.56 129.181 32.48 129.181 36.96ZM115.181 33.36C115.181 31.0133 114.381 29.1467 112.781 27.76C111.181 26.3733 109.181 25.68 106.781 25.68C104.487 25.68 102.541 26.3467 100.941 27.68C99.394 29.0133 98.434 30.9067 98.0606 33.36H115.181ZM150.078 0.799999V60H136.398V0.799999H150.078ZM157.271 37.68C157.271 33.04 158.205 28.9867 160.071 25.52C161.991 22.0533 164.631 19.3867 167.991 17.52C171.405 15.6533 175.298 14.72 179.671 14.72C185.271 14.72 189.938 16.1867 193.671 19.12C197.458 22.0533 199.938 26.1867 201.111 31.52H186.551C185.325 28.1067 182.951 26.4 179.431 26.4C176.925 26.4 174.925 27.3867 173.431 29.36C171.938 31.28 171.191 34.0533 171.191 37.68C171.191 41.3067 171.938 44.1067 173.431 46.08C174.925 48 176.925 48.96 179.431 48.96C182.951 48.96 185.325 47.2533 186.551 43.84H201.111C199.938 49.0667 197.458 53.1733 193.671 56.16C189.885 59.1467 185.218 60.64 179.671 60.64C175.298 60.64 171.405 59.7067 167.991 57.84C164.631 55.9733 161.991 53.3067 160.071 49.84C158.205 46.3733 157.271 42.32 157.271 37.68ZM228.749 60.64C224.375 60.64 220.429 59.7067 216.909 57.84C213.442 55.9733 210.695 53.3067 208.669 49.84C206.695 46.3733 205.709 42.32 205.709 37.68C205.709 33.0933 206.722 29.0667 208.749 25.6C210.775 22.08 213.549 19.3867 217.069 17.52C220.589 15.6533 224.535 14.72 228.909 14.72C233.282 14.72 237.229 15.6533 240.749 17.52C244.269 19.3867 247.042 22.08 249.069 25.6C251.095 29.0667 252.109 33.0933 252.109 37.68C252.109 42.2667 251.069 46.32 248.989 49.84C246.962 53.3067 244.162 55.9733 240.589 57.84C237.069 59.7067 233.122 60.64 228.749 60.64ZM228.749 48.8C231.362 48.8 233.575 47.84 235.389 45.92C237.255 44 238.189 41.2533 238.189 37.68C238.189 34.1067 237.282 31.36 235.469 29.44C233.709 27.52 231.522 26.56 228.909 26.56C226.242 26.56 224.029 27.52 222.269 29.44C220.509 31.3067 219.629 34.0533 219.629 37.68C219.629 41.2533 220.482 44 222.189 45.92C223.949 47.84 226.135 48.8 228.749 48.8ZM316.326 14.88C321.873 14.88 326.273 16.56 329.526 19.92C332.833 23.28 334.486 27.9467 334.486 33.92V60H320.886V35.76C320.886 32.88 320.113 30.6667 318.566 29.12C317.073 27.52 314.993 26.72 312.326 26.72C309.66 26.72 307.553 27.52 306.006 29.12C304.513 30.6667 303.766 32.88 303.766 35.76V60H290.166V35.76C290.166 32.88 289.393 30.6667 287.846 29.12C286.353 27.52 284.273 26.72 281.606 26.72C278.94 26.72 276.833 27.52 275.286 29.12C273.793 30.6667 273.046 32.88 273.046 35.76V60H259.366V15.36H273.046V20.96C274.433 19.0933 276.246 17.6267 278.486 16.56C280.726 15.44 283.26 14.88 286.086 14.88C289.446 14.88 292.433 15.6 295.046 17.04C297.713 18.48 299.793 20.5333 301.286 23.2C302.833 20.7467 304.94 18.7467 307.606 17.2C310.273 15.6533 313.18 14.88 316.326 14.88ZM386.134 36.96C386.134 38.24 386.054 39.5733 385.894 40.96H354.934C355.147 43.7333 356.027 45.8667 357.574 47.36C359.174 48.8 361.12 49.52 363.414 49.52C366.827 49.52 369.2 48.08 370.534 45.2H385.094C384.347 48.1333 382.987 50.7733 381.014 53.12C379.094 55.4667 376.667 57.3067 373.734 58.64C370.8 59.9733 367.52 60.64 363.894 60.64C359.52 60.64 355.627 59.7067 352.214 57.84C348.8 55.9733 346.134 53.3067 344.214 49.84C342.294 46.3733 341.334 42.32 341.334 37.68C341.334 33.04 342.267 28.9867 344.134 25.52C346.054 22.0533 348.72 19.3867 352.134 17.52C355.547 15.6533 359.467 14.72 363.894 14.72C368.214 14.72 372.054 15.6267 375.414 17.44C378.774 19.2533 381.387 21.84 383.254 25.2C385.174 28.56 386.134 32.48 386.134 36.96ZM372.134 33.36C372.134 31.0133 371.334 29.1467 369.734 27.76C368.134 26.3733 366.134 25.68 363.734 25.68C361.44 25.68 359.494 26.3467 357.894 27.68C356.347 29.0133 355.387 30.9067 355.014 33.36H372.134ZM435.184 48.4V60H428.224C423.264 60 419.397 58.8 416.624 56.4C413.85 53.9467 412.464 49.9733 412.464 44.48V26.72H407.024V15.36H412.464V4.48H426.144V15.36H435.104V26.72H426.144V44.64C426.144 45.9733 426.464 46.9333 427.104 47.52C427.744 48.1067 428.81 48.4 430.304 48.4H435.184ZM463.124 60.64C458.75 60.64 454.804 59.7067 451.284 57.84C447.817 55.9733 445.07 53.3067 443.044 49.84C441.07 46.3733 440.084 42.32 440.084 37.68C440.084 33.0933 441.097 29.0667 443.124 25.6C445.15 22.08 447.924 19.3867 451.444 17.52C454.964 15.6533 458.91 14.72 463.284 14.72C467.657 14.72 471.604 15.6533 475.124 17.52C478.644 19.3867 481.417 22.08 483.444 25.6C485.47 29.0667 486.484 33.0933 486.484 37.68C486.484 42.2667 485.444 46.32 483.364 49.84C481.337 53.3067 478.537 55.9733 474.964 57.84C471.444 59.7067 467.497 60.64 463.124 60.64ZM463.124 48.8C465.737 48.8 467.95 47.84 469.764 45.92C471.63 44 472.564 41.2533 472.564 37.68C472.564 34.1067 471.657 31.36 469.844 29.44C468.084 27.52 465.897 26.56 463.284 26.56C460.617 26.56 458.404 27.52 456.644 29.44C454.884 31.3067 454.004 34.0533 454.004 37.68C454.004 41.2533 454.857 44 456.564 45.92C458.324 47.84 460.51 48.8 463.124 48.8ZM19.68 130.72C16.32 130.72 13.3067 130.16 10.64 129.04C7.97333 127.867 5.86667 126.267 4.32 124.24C2.77333 122.16 1.92 119.787 1.76 117.12H9.28C9.49333 119.307 10.5067 121.093 12.32 122.48C14.1867 123.867 16.6133 124.56 19.6 124.56C22.3733 124.56 24.56 123.947 26.16 122.72C27.76 121.493 28.56 119.947 28.56 118.08C28.56 116.16 27.7067 114.747 26 113.84C24.2933 112.88 21.6533 111.947 18.08 111.04C14.8267 110.187 12.16 109.333 10.08 108.48C8.05333 107.573 6.29333 106.267 4.8 104.56C3.36 102.8 2.64 100.507 2.64 97.68C2.64 95.44 3.30667 93.3867 4.64 91.52C5.97333 89.6533 7.86667 88.1867 10.32 87.12C12.7733 86 15.5733 85.44 18.72 85.44C23.5733 85.44 27.4933 86.6667 30.48 89.12C33.4667 91.5733 35.0667 94.9333 35.28 99.2H28C27.84 96.9067 26.9067 95.0667 25.2 93.68C23.5467 92.2933 21.3067 91.6 18.48 91.6C15.8667 91.6 13.7867 92.16 12.24 93.28C10.6933 94.4 9.92 95.8667 9.92 97.68C9.92 99.12 10.3733 100.32 11.28 101.28C12.24 102.187 13.4133 102.933 14.8 103.52C16.24 104.053 18.2133 104.667 20.72 105.36C23.8667 106.213 26.4267 107.067 28.4 107.92C30.3733 108.72 32.0533 109.947 33.44 111.6C34.88 113.253 35.6267 115.413 35.68 118.08C35.68 120.48 35.0133 122.64 33.68 124.56C32.3467 126.48 30.4533 128 28 129.12C25.6 130.187 22.8267 130.72 19.68 130.72ZM54.8369 92.16V118C54.8369 120.133 55.2902 121.653 56.1969 122.56C57.1035 123.413 58.6769 123.84 60.9169 123.84H66.2769V130H59.7169C55.6635 130 52.6235 129.067 50.5969 127.2C48.5702 125.333 47.5569 122.267 47.5569 118V92.16H41.8769V86.16H47.5569V75.12H54.8369V86.16H66.2769V92.16H54.8369ZM113.978 86.16V130H106.698V123.52C105.311 125.76 103.364 127.52 100.858 128.8C98.4042 130.027 95.6842 130.64 92.6975 130.64C89.2842 130.64 86.2175 129.947 83.4975 128.56C80.7775 127.12 78.6175 124.987 77.0175 122.16C75.4708 119.333 74.6975 115.893 74.6975 111.84V86.16H81.8975V110.88C81.8975 115.2 82.9908 118.533 85.1775 120.88C87.3642 123.173 90.3508 124.32 94.1375 124.32C98.0308 124.32 101.098 123.12 103.338 120.72C105.578 118.32 106.698 114.827 106.698 110.24V86.16H113.978ZM123.549 107.92C123.549 103.44 124.456 99.52 126.269 96.16C128.083 92.7467 130.563 90.1067 133.709 88.24C136.909 86.3733 140.483 85.44 144.429 85.44C147.843 85.44 151.016 86.24 153.949 87.84C156.883 89.3867 159.123 91.44 160.669 94V70.8H168.029V130H160.669V121.76C159.229 124.373 157.096 126.533 154.269 128.24C151.443 129.893 148.136 130.72 144.349 130.72C140.456 130.72 136.909 129.76 133.709 127.84C130.563 125.92 128.083 123.227 126.269 119.76C124.456 116.293 123.549 112.347 123.549 107.92ZM160.669 108C160.669 104.693 160.003 101.813 158.669 99.36C157.336 96.9067 155.523 95.04 153.229 93.76C150.989 92.4267 148.509 91.76 145.789 91.76C143.069 91.76 140.589 92.4 138.349 93.68C136.109 94.96 134.323 96.8267 132.989 99.28C131.656 101.733 130.989 104.613 130.989 107.92C130.989 111.28 131.656 114.213 132.989 116.72C134.323 119.173 136.109 121.067 138.349 122.4C140.589 123.68 143.069 124.32 145.789 124.32C148.509 124.32 150.989 123.68 153.229 122.4C155.523 121.067 157.336 119.173 158.669 116.72C160.003 114.213 160.669 111.307 160.669 108ZM220.332 106.4C220.332 107.787 220.252 109.253 220.092 110.8H185.052C185.319 115.12 186.785 118.507 189.452 120.96C192.172 123.36 195.452 124.56 199.292 124.56C202.439 124.56 205.052 123.84 207.132 122.4C209.265 120.907 210.759 118.933 211.612 116.48H219.452C218.279 120.693 215.932 124.133 212.412 126.8C208.892 129.413 204.519 130.72 199.292 130.72C195.132 130.72 191.399 129.787 188.092 127.92C184.839 126.053 182.279 123.413 180.412 120C178.545 116.533 177.612 112.533 177.612 108C177.612 103.467 178.519 99.4933 180.332 96.08C182.145 92.6667 184.679 90.0533 187.932 88.24C191.239 86.3733 195.025 85.44 199.292 85.44C203.452 85.44 207.132 86.3467 210.332 88.16C213.532 89.9733 215.985 92.48 217.692 95.68C219.452 98.8267 220.332 102.4 220.332 106.4ZM212.812 104.88C212.812 102.107 212.199 99.7333 210.972 97.76C209.745 95.7333 208.065 94.2133 205.932 93.2C203.852 92.1333 201.532 91.6 198.972 91.6C195.292 91.6 192.145 92.7733 189.532 95.12C186.972 97.4667 185.505 100.72 185.132 104.88H212.812ZM251.301 85.36C256.635 85.36 260.955 86.9867 264.261 90.24C267.568 93.44 269.221 98.08 269.221 104.16V130H262.021V105.2C262.021 100.827 260.928 97.4933 258.741 95.2C256.555 92.8533 253.568 91.68 249.781 91.68C245.941 91.68 242.875 92.88 240.581 95.28C238.341 97.68 237.221 101.173 237.221 105.76V130H229.941V86.16H237.221V92.4C238.661 90.16 240.608 88.4267 243.061 87.2C245.568 85.9733 248.315 85.36 251.301 85.36ZM289.993 92.16V118C289.993 120.133 290.446 121.653 291.353 122.56C292.26 123.413 293.833 123.84 296.073 123.84H301.433V130H294.873C290.82 130 287.78 129.067 285.753 127.2C283.726 125.333 282.713 122.267 282.713 118V92.16H277.033V86.16H282.713V75.12H289.993V86.16H301.433V92.16H289.993ZM338.862 94.24C340.302 91.7333 342.435 89.6533 345.262 88C348.142 86.2933 351.475 85.44 355.262 85.44C359.155 85.44 362.675 86.3733 365.822 88.24C369.022 90.1067 371.529 92.7467 373.342 96.16C375.155 99.52 376.062 103.44 376.062 107.92C376.062 112.347 375.155 116.293 373.342 119.76C371.529 123.227 369.022 125.92 365.822 127.84C362.675 129.76 359.155 130.72 355.262 130.72C351.529 130.72 348.222 129.893 345.342 128.24C342.515 126.533 340.355 124.427 338.862 121.92V150.8H331.582V86.16H338.862V94.24ZM368.622 107.92C368.622 104.613 367.955 101.733 366.622 99.28C365.289 96.8267 363.475 94.96 361.182 93.68C358.942 92.4 356.462 91.76 353.742 91.76C351.075 91.76 348.595 92.4267 346.302 93.76C344.062 95.04 342.249 96.9333 340.862 99.44C339.529 101.893 338.862 104.747 338.862 108C338.862 111.307 339.529 114.213 340.862 116.72C342.249 119.173 344.062 121.067 346.302 122.4C348.595 123.68 351.075 124.32 353.742 124.32C356.462 124.32 358.942 123.68 361.182 122.4C363.475 121.067 365.289 119.173 366.622 116.72C367.955 114.213 368.622 111.28 368.622 107.92ZM404.764 130.72C400.658 130.72 396.924 129.787 393.564 127.92C390.258 126.053 387.644 123.413 385.724 120C383.858 116.533 382.924 112.533 382.924 108C382.924 103.52 383.884 99.5733 385.804 96.16C387.778 92.6933 390.444 90.0533 393.804 88.24C397.164 86.3733 400.924 85.44 405.084 85.44C409.244 85.44 413.004 86.3733 416.364 88.24C419.724 90.0533 422.364 92.6667 424.284 96.08C426.258 99.4933 427.244 103.467 427.244 108C427.244 112.533 426.231 116.533 424.204 120C422.231 123.413 419.538 126.053 416.124 127.92C412.711 129.787 408.924 130.72 404.764 130.72ZM404.764 124.32C407.378 124.32 409.831 123.707 412.124 122.48C414.418 121.253 416.258 119.413 417.644 116.96C419.084 114.507 419.804 111.52 419.804 108C419.804 104.48 419.111 101.493 417.724 99.04C416.338 96.5867 414.524 94.7733 412.284 93.6C410.044 92.3733 407.618 91.76 405.004 91.76C402.338 91.76 399.884 92.3733 397.644 93.6C395.458 94.7733 393.698 96.5867 392.364 99.04C391.031 101.493 390.364 104.48 390.364 108C390.364 111.573 391.004 114.587 392.284 117.04C393.618 119.493 395.378 121.333 397.564 122.56C399.751 123.733 402.151 124.32 404.764 124.32ZM444.096 93.28C445.376 90.7733 447.19 88.8267 449.536 87.44C451.936 86.0533 454.843 85.36 458.256 85.36V92.88H456.336C448.176 92.88 444.096 97.3067 444.096 106.16V130H436.816V86.16H444.096V93.28ZM475.54 92.16V118C475.54 120.133 475.993 121.653 476.9 122.56C477.807 123.413 479.38 123.84 481.62 123.84H486.98V130H480.42C476.367 130 473.327 129.067 471.3 127.2C469.273 125.333 468.26 122.267 468.26 118V92.16H462.58V86.16H468.26V75.12H475.54V86.16H486.98V92.16H475.54ZM493.081 107.92C493.081 103.44 493.987 99.52 495.801 96.16C497.614 92.7467 500.094 90.1067 503.241 88.24C506.441 86.3733 509.987 85.44 513.881 85.44C517.721 85.44 521.054 86.2667 523.881 87.92C526.707 89.5733 528.814 91.6533 530.201 94.16V86.16H537.561V130H530.201V121.84C528.761 124.4 526.601 126.533 523.721 128.24C520.894 129.893 517.587 130.72 513.801 130.72C509.907 130.72 506.387 129.76 503.241 127.84C500.094 125.92 497.614 123.227 495.801 119.76C493.987 116.293 493.081 112.347 493.081 107.92ZM530.201 108C530.201 104.693 529.534 101.813 528.201 99.36C526.867 96.9067 525.054 95.04 522.761 93.76C520.521 92.4267 518.041 91.76 515.321 91.76C512.601 91.76 510.121 92.4 507.881 93.68C505.641 94.96 503.854 96.8267 502.521 99.28C501.187 101.733 500.521 104.613 500.521 107.92C500.521 111.28 501.187 114.213 502.521 116.72C503.854 119.173 505.641 121.067 507.881 122.4C510.121 123.68 512.601 124.32 515.321 124.32C518.041 124.32 520.521 123.68 522.761 122.4C525.054 121.067 526.867 119.173 528.201 116.72C529.534 114.213 530.201 111.307 530.201 108ZM557.143 70.8V130H549.863V70.8H557.143Z" fill="#EEEEEE"/>
</svg>
